Patient4_TMGait_0pt4_03_left_43_EMG.mot
version=1
nRows=23
nColumns=33
inDegrees=no
endheader
time	1LAddLong	2LGlutMax	3LGlutMed	4LIliopsoas	5LSemiMemb	6LBicFemLong	7LRecFem	8LVastMed	9LVastLat	10LGasMed	11LTibAnt	12lTibPost	13LPeroneusLong	14LSol	15LExtDigLong	16LFlexDigLong	17RAddLong	18RGlutMax	19RGlutMed	20RIliopsoas	21RSemiMemb	22RBicFemLong	23RRecFem	24RVastMed	25RVastLat	26RGasMed	27RTibAnt	28RTibPost	29RPeroneusLong	30RSol	31RExtDigLong	32RFlexDigLong
58.37	0.014801	0.0354	-0.0383	0.006104	-0.052795	0.031738	-0.029755	0.007324	0.18601	-0.005951	0.014648	-0.00412	-0.074615	-0.062866	0.10147	-0.024109	0.002747	-0.18753	-0.089569	0.14282	0.053558	0.034943	-0.02243	-0.022583	-0.016174	-0.01709	-0.012665	-0.001678	-0.040894	0.057526	0.001373	-0.015259
58.371	0.006409	0.014801	0.005035	0.014648	0.013885	0.038147	-0.028076	0.007629	0.1947	-0.02243	0.002747	-0.003052	-0.056	-0.1329	0.30273	0.002747	0.014801	-0.15579	0.13473	-0.001526	0.04776	0.045166	0.026398	-0.011597	0.00061	-0.021667	-0.060425	-0.000763	-0.036469	0.003052	-0.003967	-0.018768
58.372	0.009308	0.028839	0.077667	0.015259	0.03952	0.020447	-0.029602	0.004883	0.18234	-0.040283	0.012054	0.003967	-0.027313	-0.12604	0.15472	-0.009003	0.009308	-0.13519	0.018311	-0.057373	0.031281	0.023804	0.040588	-0.039368	-0.025787	-0.012512	-0.009613	-0.000153	0.025787	0.005493	0.000916	-0.012207
58.373	0.008698	0.014496	0.033417	0.017395	0.014191	0.023499	-0.017242	0.001221	0.17563	-0.046844	0.00824	-0.003052	-0.024414	-0.11414	0.10452	-0.00061	0.002747	-0.11398	0.089264	-0.087433	0.027771	0.039368	0.083771	-0.039673	-0.042725	-0.002747	0.11353	-0.000916	0.11108	-0.028534	-0.002441	-0.013428
58.374	0.01297	-0.005798	-0.007019	0.006866	0.030975	-0.00946	-0.027924	0.005341	0.14938	-0.034485	-0.059204	0	-0.066223	-0.12756	-0.031281	-0.005341	0.004272	-0.12711	-0.085602	-0.10742	0.025024	0.040894	0.13229	-0.021057	-0.063782	-0.009155	-0.031586	0.001373	-0.23514	-0.048218	-0.001831	-0.021515
58.375	0.003967	0.00885	0.003052	-0.005188	0.025024	-0.05127	-0.03479	0.002747	0.15091	-0.025787	-0.080719	0.002899	-0.078735	-0.11383	-0.11551	-0.008087	0.005646	-0.15106	-0.25925	-0.10315	0.018768	0.06012	0.18494	-0.037994	-0.068207	-0.000916	-0.002899	-0.000458	-0.58594	0.025482	0.000153	-0.011597
58.376	0.009613	-0.022583	0.009003	0.000763	0.025635	-0.011292	-0.022888	0.003052	0.15884	-0.044556	-0.044708	0.002441	-0.070953	-0.11841	-0.12299	0.003815	0.008392	-0.16739	-0.046234	-0.073395	0.010986	0.063782	-0.00473	-0.082703	0.021057	0.000763	-0.10635	-0.001526	-0.6575	0.040588	-0.000916	-0.014648
58.377	0.014954	-0.00351	-0.016785	-0.002441	0.012512	-0.016632	-0.025787	0.00885	0.14999	-0.057526	-0.000153	0.017395	-0.017395	-0.1239	-0.04425	-0.005035	-0.007172	-0.14847	0.38391	-0.065155	0.014496	0.071869	-0.036163	0.016174	0.12604	-0.004272	-0.12024	-0.00061	0.12634	-0.1178	-0.004578	-0.011597
58.378	0.007324	0.012054	-0.056763	0.003204	0.007629	-0.027161	-0.027466	0.004578	0.1738	-0.033417	0.050354	0.005035	-0.079346	-0.11841	0.003662	-0.002441	-0.00412	-0.13825	-0.067139	-0.003662	0.018158	0.081482	0.10742	0.020142	0.014801	0.005951	-0.083771	-0.000305	1.7465	-0.10361	-0.001678	-0.005798
58.379	0.009155	-0.001221	-0.062714	0.016479	0.010834	-0.025635	-0.021362	0.015869	0.17334	-0.023651	0.032043	0.006866	-0.090637	-0.11124	0.02533	0.004578	-0.003967	-0.13275	-0.28503	-0.041962	0.015869	0.0737	-0.043793	-0.067596	-0.16144	0.002594	-0.004272	-0.000458	1.4903	0.007935	0.000305	-0.010681
58.38	0.003815	-0.010071	-0.03891	0.023346	0.00351	-0.012207	-0.02121	0.006409	0.1709	-0.012512	0.018005	-0.009918	-0.036469	-0.083923	0.031281	0.007629	-0.003357	-0.12543	-0.12466	-0.092163	0.014038	0.071869	-0.27847	-0.063934	-0.1471	-0.010529	0.24399	-0.001221	0.2742	0.006256	-0.006714	-0.001221
58.381	-0.00351	-0.002289	-0.056	0.031891	-0.016937	0.013428	-0.034637	0.005951	0.16724	-0.007477	0.012207	-0.007477	-0.027618	-0.093079	0.044556	0.00473	-0.002594	-0.088654	-0.12344	-0.16449	0.015259	0.06424	-0.3215	0.01709	-0.08316	-0.01236	0.28244	0.000153	-0.35996	-0.002289	0.000763	-0.001678
58.382	-0.001526	0.003967	-0.030212	0.023651	-0.042114	-0.005341	-0.039063	0.003357	0.15289	-0.017853	0.011597	-0.001068	-0.032501	-0.093842	0.036163	0.005188	-0.003815	-0.023651	-0.16098	-0.16052	0.014954	0.054779	-0.21072	0.053711	-0.011749	-0.012665	0.061493	0.002136	-0.39719	0.007782	-0.004578	-0.008698
58.383	-0.007629	-0.018616	-0.042267	0.023499	-0.023804	0.018616	-0.051727	0.003815	0.13382	-0.02243	0.010529	0.003967	-0.043488	-0.084534	0.034332	-0.006409	0.018616	0.011292	-0.28	-0.11841	-0.00061	0.025177	-0.042419	0.090179	-0.036774	-0.002289	-0.23651	-0.005798	1.0052	-0.046082	-0.000153	-0.002747
58.384	0.00351	0.005188	-0.018768	0.008087	-0.015259	-0.004883	-0.040741	0.005188	0.095062	-0.034332	0.008698	0.004883	-0.050354	-0.095215	0.031891	0.006104	0.012665	0.042572	-0.18875	-0.041962	-0.003815	0.027771	0.052338	0.0737	-0.076294	-0.005493	-0.2005	-0.00061	0.12619	0.005188	-0.001678	-0.007935
58.385	0.014496	-0.018921	-0.02121	0.005951	0.022278	-0.019073	-0.041656	0.001984	0.084381	-0.027008	0.005341	0.006714	-0.04776	-0.10788	0.025177	-0.003967	0.020142	0.052185	0.40695	0.13748	0.003052	0.043945	0.097504	0.038605	-0.093231	-0.002747	-0.099792	0.000153	-0.76767	-0.011902	-0.003204	-0.007477
58.386	0.017395	-0.037231	0.000305	-0.015259	0.049286	0.000763	-0.033264	0.005188	0.073547	-0.03067	0.002289	0.007172	-0.072021	-0.097504	0.022583	0.006866	0.012512	0.081635	-0.13596	0.22751	-0.002899	0.039368	0.14297	0.030823	-0.042725	-0.002747	0.059204	0.010529	-0.77988	0.007172	-0.002136	-0.010376
58.387	0.015564	-0.021057	-0.009003	-0.013428	0.003052	-0.000763	-0.038757	0.006104	0.073547	-0.031433	0.012512	0.019073	-0.059662	-0.090942	0.020142	-0.003815	0.007629	0.050812	-0.40573	0.24368	0.002594	0.058899	0.046539	-0.00824	-0.05127	0.000763	0.014343	0.000153	0.11063	-0.017548	0	-0.012817
58.388	0.022736	-0.054169	0.005035	0.013275	-0.012054	-0.019379	-0.05249	0.00885	0.071411	-0.029144	0.068817	0.022583	-0.057678	-0.081482	0.018311	0.010681	-0.007477	-0.038452	-0.042267	0.17334	0.021667	0.068054	-0.31891	-0.037842	0.034637	-0.002899	-0.002747	-0.00061	0.23575	-0.009003	-0.001526	-0.016785
58.389	0.014801	-0.014648	0.008698	0.002441	-0.009613	0.010986	-0.038452	0.00473	0.079498	-0.030212	-0.00061	0.013123	-0.063171	-0.084686	0.006409	0.018158	-0.001831	-0.028229	0.62897	0.010376	0.018921	0.06012	-0.39032	-0.062714	0.11719	-0.007935	0.035858	-0.000458	-0.1886	-0.000305	-0.003967	-0.015106
58.39	0.023956	-0.02243	-0.004883	-0.001373	-0.016022	0.021362	-0.045471	0.008698	0.084839	-0.027161	0.001068	0.015564	-0.063324	-0.081482	0.012512	-0.000458	0.005188	0.038757	0.84488	-0.021667	0.006714	0.059204	-0.14328	-0.027161	0.11841	-0.002136	0.026398	0.000763	-0.001678	0.014496	-0.00061	-0.012207
58.391	0.008087	-0.006714	-0.033875	-0.004883	-0.020447	0.014038	-0.050812	0.009766	0.070801	-0.033569	0.015869	0.010986	-0.05127	-0.075989	0.007324	0.000763	0.020599	0.093384	-0.28686	0.006409	-0.009308	0.042114	-0.023804	-0.097198	0.005798	0.013733	-0.024261	-0.004578	0.82214	-0.030823	-0.002594	0.001526
58.392	0.007629	0.044708	-0.0737	0.003357	-0.021057	0.014038	-0.050201	0.002899	0.076141	-0.029602	0.018768	0.006409	-0.053406	-0.072937	0.002136	0.007935	0.015717	0.11383	-0.63492	-0.023956	0.002747	0.058136	-0.039368	-0.041046	-0.073395	0.003204	0.005493	-0.00061	0.073395	0.059509	-0.002289	-0.009003
